<?xml version="1.0" encoding="UTF-8" standalone="no"?>
<!DOCTYPE svg PUBLIC "-//W3C//DTD SVG 1.1//EN" "http://www.w3.org/Graphics/SVG/1.1/DTD/svg11.dtd">
<svg width="100%" height="100%" viewBox="0 0 303 90" version="1.1" xmlns="http://www.w3.org/2000/svg" xmlns:xlink="http://www.w3.org/1999/xlink" xml:space="preserve" style="fill-rule:evenodd;clip-rule:evenodd;stroke-linejoin:round;stroke-miterlimit:1.41421;">
    <g transform="matrix(1,0,0,1,0,-431.128)">
        <g id="_302x90" transform="matrix(0.121776,0,0,0.0256566,0,431.128)">
            <rect x="0" y="0" width="2480.32" height="3507.87" style="fill:none;"/>
            <clipPath id="_clip1">
                <rect x="0" y="0" width="2480.32" height="3507.87"/>
            </clipPath>
            <g clip-path="url(#_clip1)">
                <g id="Glas" transform="matrix(0.594726,0,0,1.99591,-88.5962,-1938.14)">
                    <g transform="matrix(14.1457,0,0,20.0053,626.343,-5106.43)">
                        <path d="M51.011,329.291L49.902,329.291L49.902,339.071L50.958,339.071L50.931,330.836L56.731,339.071L57.791,339.071L57.791,329.291L56.731,329.291L56.744,337.458L51.011,329.291Z" style="fill:rgb(36,36,36);fill-rule:nonzero;"/>
                    </g>
                    <g transform="matrix(14.1457,0,0,20.0053,626.343,-5106.43)">
                        <path d="M64.046,339.071L69.465,339.071L69.465,338.108L65.129,338.108L65.129,334.616L69.438,334.616L69.438,333.653L65.129,333.653L65.129,330.254L69.465,330.254L69.465,329.291L64.046,329.291L64.046,339.071Z" style="fill:rgb(36,36,36);fill-rule:nonzero;"/>
                    </g>
                    <g transform="matrix(14.1457,0,0,20.0053,626.343,-5106.43)">
                        <path d="M77.014,339.071L78.11,339.071L78.11,330.254L80.529,330.254L80.529,329.291L74.609,329.291L74.609,330.254L77.014,330.254L77.014,339.071Z" style="fill:rgb(36,36,36);fill-rule:nonzero;"/>
                    </g>
                    <g transform="matrix(14.1457,0,0,20.0053,626.343,-5106.43)">
                        <path d="M88.911,339.071L89.955,339.071L93.841,329.291L92.691,329.291L89.44,337.657L86.202,329.291L85.052,329.291L88.911,339.071Z" style="fill:rgb(36,36,36);fill-rule:nonzero;"/>
                    </g>
                    <g transform="matrix(14.1457,0,0,20.0053,626.343,-5106.43)">
                        <rect x="99.249" y="329.291" width="1.082" height="9.781" style="fill:rgb(36,36,36);fill-rule:nonzero;"/>
                    </g>
                    <g transform="matrix(14.1457,0,0,20.0053,626.343,-5106.43)">
                        <path d="M108.026,336.322L112.586,336.322L113.723,339.071L114.912,339.071L110.868,329.291L109.811,329.291L105.727,339.071L106.903,339.071L108.026,336.322ZM112.256,335.424L108.357,335.424L110.3,330.518L112.256,335.424Z" style="fill:rgb(36,36,36);fill-rule:nonzero;"/>
                    </g>
                    <g transform="matrix(14.1457,0,0,20.0053,626.343,-5106.43)">
                        <path d="M119.435,339.071L120.651,339.071L123.387,334.829L126.175,339.071L127.431,339.071L124.061,334.036L127.193,329.291L125.951,329.291L123.426,333.19L120.902,329.291L119.646,329.291L122.792,334.022L119.435,339.071Z" style="fill:rgb(36,36,36);fill-rule:nonzero;"/>
                    </g>
                    <g transform="matrix(14.1457,0,0,20.0053,626.343,-5106.43)">
                        <path d="M69.449,352.197C68.203,348.693 64.388,345.945 60.054,345.945C54.449,345.945 49.885,350.12 49.885,355.858C49.885,361.437 54.267,365.872 60.002,365.872C63.454,365.872 67.58,364.109 69.371,360.112C70.098,358.502 70.279,356.557 70.227,355.287L58.601,355.287L58.601,358.398L65.764,358.398C65.478,359.541 64.803,360.58 63.791,361.307C62.805,362.034 61.508,362.476 59.977,362.476C56.914,362.476 53.748,360.19 53.748,355.858C53.748,351.678 56.888,349.341 59.977,349.341C61.456,349.341 62.675,349.834 63.662,350.613C64.233,351.055 64.7,351.6 65.089,352.197L69.449,352.197Z" style="fill:rgb(36,36,36);fill-rule:nonzero;"/>
                    </g>
                    <g transform="matrix(14.1457,0,0,20.0053,626.343,-5106.43)">
                        <path d="M81.416,365.509L91.585,365.509L91.585,362.112L85.279,362.112L85.279,346.308L81.416,346.308L81.416,365.509Z" style="fill:rgb(36,36,36);fill-rule:nonzero;"/>
                    </g>
                    <g transform="matrix(14.1457,0,0,20.0053,626.343,-5106.43)">
                        <path d="M105.965,361.746L113.541,361.746L114.942,365.509L119.172,365.509L111.569,346.308L108.17,346.308L100.386,365.509L104.589,365.509L105.965,361.746ZM112.503,358.661L106.977,358.661L109.701,350.875L112.503,358.661Z" style="fill:rgb(36,36,36);fill-rule:nonzero;"/>
                    </g>
                    <g transform="matrix(14.1457,0,0,20.0053,626.343,-5106.43)">
                        <path d="M128.595,359.542C128.569,363.254 130.825,365.872 135.185,365.872C139.701,365.872 141.594,362.994 141.594,359.906C141.594,357.18 139.96,355.779 137.029,354.507C133.783,353.157 132.744,352.793 132.77,351.366C132.77,350.068 133.861,349.185 135.133,349.185C137.029,349.185 137.366,350.665 137.522,351.548L141.334,351.548C141.179,347.293 137.808,345.945 135.263,345.945C132.148,345.945 128.907,347.941 128.907,351.625C128.907,355.259 132.251,356.454 133.705,356.973C136.38,358.037 137.756,358.452 137.756,360.088C137.756,361.437 136.613,362.631 135.133,362.631C134.302,362.631 132.563,362.138 132.433,359.542L128.595,359.542Z" style="fill:rgb(36,36,36);fill-rule:nonzero;"/>
                    </g>
                    <g transform="matrix(3.20971e-16,7.41318,-2.89486,2.50685e-16,6995.34,-84444.4)">
                        <rect x="11522.1" y="2048.6" width="236.328" height="316.406" style="fill:white;"/>
                    </g>
                    <g transform="matrix(4.13386,0,0,5.84646,148.97,972.912)">
                        <path d="M0,190.616L0.324,190.612C0.795,190.61 1.266,190.61 1.737,190.612C3.609,190.629 5.479,190.683 7.347,190.789C10.797,190.986 14.238,191.347 17.654,191.869C27.404,193.358 36.943,196.189 45.93,200.254C59.508,206.395 71.797,215.352 81.813,226.385C85.637,230.597 89.138,235.101 92.268,239.852C94.929,243.892 97.318,248.11 99.421,252.466C103.794,261.525 106.89,271.201 108.598,281.114C109.635,287.132 110.161,293.236 110.184,299.342L0,299.342L0,190.616ZM100.009,-0.317C100.03,5.325 100.432,10.966 101.217,16.551C102.182,23.423 103.722,30.214 105.826,36.828C107.587,42.361 109.741,47.768 112.261,53C118.637,66.239 127.4,78.315 137.973,88.517C149.107,99.26 162.241,107.909 176.529,113.85C184.534,117.178 192.887,119.661 201.411,121.241C208.061,122.474 214.812,123.157 221.573,123.293L221.573,167.033L220.88,167.033C218.049,167.061 215.223,167.273 212.424,167.702C207.233,168.497 202.163,170.004 197.377,172.163C192.481,174.371 187.891,177.276 183.795,180.748C182.466,181.875 181.182,183.056 179.96,184.299C177.028,187.278 174.409,190.556 172.173,194.087C170.546,196.656 169.131,199.355 167.921,202.144C167.59,202.907 167.281,203.68 166.985,204.457C165.275,208.946 164.136,213.645 163.586,218.417C162.882,224.521 163.153,230.745 164.386,236.764C165.693,243.143 168.09,249.287 171.436,254.872C174.78,260.454 179.072,265.459 184.061,269.633C188.542,273.382 193.595,276.448 198.989,278.692C202.734,280.251 206.643,281.41 210.631,282.151C214.133,282.801 217.695,283.124 221.256,283.124L221.573,283.123L221.573,299.342L125.145,299.342C125.122,292.385 124.523,285.43 123.342,278.573C121.397,267.289 117.873,256.276 112.895,245.963C110.504,241.011 107.787,236.216 104.763,231.624C101.209,226.228 97.233,221.113 92.891,216.329C81.502,203.785 67.533,193.605 52.095,186.623C41.867,181.997 31.011,178.776 19.914,177.08C16.031,176.487 12.121,176.077 8.2,175.853C6.079,175.732 3.956,175.671 1.831,175.652C1.297,175.65 0.764,175.65 0.23,175.652L0,175.655L0,130.888C0.149,130.889 0.299,130.888 0.449,130.887C8.064,130.839 15.653,129.29 22.666,126.32C26.438,124.722 30.039,122.725 33.391,120.371C35.955,118.57 38.369,116.56 40.613,114.374C45.451,109.659 49.467,104.086 52.394,97.997C55.032,92.51 56.81,86.612 57.609,80.575C58.463,74.123 58.249,67.533 56.942,61.155C55.565,54.433 52.978,47.961 49.338,42.143C46.628,37.81 43.35,33.83 39.606,30.35C34.994,26.064 29.699,22.531 23.964,19.933C18.957,17.665 13.623,16.122 8.18,15.36C5.617,15.001 3.036,14.823 0.449,14.798L0,14.798L0,-0.317L100.009,-0.317ZM221.573,268.162C221.374,268.164 221.174,268.164 220.974,268.163C215.327,268.127 209.699,266.983 204.497,264.779C201.226,263.394 198.118,261.604 195.289,259.454C193.772,258.3 192.329,257.052 190.972,255.714C188.637,253.413 186.567,250.835 184.814,248.066C182.332,244.146 180.497,239.826 179.392,235.32C178.506,231.705 178.103,227.965 178.175,224.244C178.198,223.043 178.274,221.845 178.393,220.65C178.507,219.493 178.674,218.34 178.888,217.198C179.036,216.406 179.2,215.618 179.392,214.835C179.937,212.612 180.657,210.43 181.551,208.321C182.94,205.043 184.738,201.942 186.886,199.103C188.035,197.584 189.289,196.148 190.624,194.791C191.71,193.687 192.862,192.647 194.061,191.668C196.944,189.316 200.135,187.33 203.528,185.801C206.831,184.311 210.316,183.234 213.887,182.62C216.23,182.217 218.598,182.016 220.974,181.993C221.174,181.993 221.374,181.993 221.573,181.994L221.573,268.162ZM0,29.758C0.396,29.758 0.792,29.762 1.189,29.771C3.285,29.83 5.374,30.029 7.441,30.385C11.263,31.042 14.996,32.224 18.499,33.89C22.883,35.974 26.899,38.795 30.355,42.204C34.362,46.157 37.583,50.904 39.778,56.086C41.159,59.345 42.129,62.779 42.665,66.278C43.329,70.618 43.329,75.066 42.665,79.407C42.05,83.421 40.864,87.352 39.14,91.03C37.851,93.782 36.276,96.395 34.443,98.818C32.982,100.75 31.352,102.549 29.593,104.214C28.471,105.276 27.285,106.275 26.052,107.207C23.073,109.458 19.811,111.332 16.353,112.743C14.23,113.609 12.04,114.308 9.806,114.824C6.593,115.566 3.297,115.933 0,115.928L0,29.758ZM114.975,-0.317L221.573,-0.317L221.573,108.33C215.726,108.195 209.89,107.597 204.139,106.531C196.648,105.142 189.308,102.961 182.274,100.036C169.706,94.81 158.155,87.201 148.362,77.751C139.061,68.777 131.349,58.156 125.74,46.509C122.846,40.498 120.498,34.224 118.756,27.783C117.572,23.407 116.663,18.959 116.032,14.47C115.344,9.573 114.996,4.628 114.975,-0.317Z" style="fill:rgb(34,142,234);"/>
                    </g>
                </g>
            </g>
        </g>
    </g>
</svg>
