<?xml version="1.0" encoding="UTF-8" standalone="no"?>
<!DOCTYPE svg PUBLIC "-//W3C//DTD SVG 1.1//EN" "http://www.w3.org/Graphics/SVG/1.1/DTD/svg11.dtd">
<svg width="100%" height="100%" viewBox="0 0 16 16" version="1.1" xmlns="http://www.w3.org/2000/svg" xmlns:xlink="http://www.w3.org/1999/xlink" xml:space="preserve" style="fill-rule:evenodd;clip-rule:evenodd;stroke-linejoin:round;stroke-miterlimit:1.41421;">
    <g transform="matrix(1,0,0,1,-192.322,-76.2586)">
        <g id="back-button" transform="matrix(0.979859,0,0,1.97943,3.87363,-74.6899)">
            <rect x="192.322" y="76.259" width="16.329" height="8.083" style="fill:none;"/>
            <clipPath id="_clip1">
                <rect x="192.322" y="76.259" width="16.329" height="8.083"/>
            </clipPath>
            <g clip-path="url(#_clip1)">
                <g transform="matrix(1.02056,0,0,0.505196,-4.16497,39.7337)">
                    <path d="M196.846,81.246C196.837,82.022 196.828,82.799 196.828,83.575C196.825,83.659 196.807,83.738 196.767,83.812C196.657,84.015 196.413,84.115 196.192,84.05C196.123,84.03 196.063,83.994 196.007,83.949C194.858,82.879 193.785,81.729 192.675,80.619C192.634,80.575 192.599,80.529 192.574,80.474C192.515,80.344 192.515,80.192 192.574,80.062C192.594,80.019 192.621,79.981 192.65,79.943C193.721,78.794 194.871,77.721 195.981,76.611C196.071,76.527 196.174,76.48 196.296,76.467C196.332,76.466 196.332,76.466 196.367,76.467C196.415,76.472 196.46,76.48 196.505,76.497C196.627,76.543 196.729,76.637 196.783,76.756C196.808,76.81 196.82,76.867 196.826,76.926C196.854,77.688 196.862,78.45 196.862,79.213C200.438,79.124 204.018,79.143 207.592,79.265C207.683,79.274 207.771,79.289 207.857,79.32C208.114,79.411 208.326,79.609 208.434,79.859C208.48,79.965 208.502,80.073 208.514,80.187C208.548,81.171 208.516,82.157 208.516,83.141C208.514,83.203 208.515,83.218 208.507,83.279C208.484,83.44 208.422,83.593 208.327,83.724C208.259,83.818 208.175,83.899 208.079,83.964C207.727,84.201 207.249,84.184 206.914,83.923C206.805,83.838 206.714,83.729 206.649,83.607C206.572,83.461 206.539,83.305 206.533,83.141L206.533,81.246L196.846,81.246Z" style="fill:rgb(94,94,94);"/>
                </g>
            </g>
        </g>
    </g>
</svg>
