<?xml version="1.0" encoding="UTF-8" standalone="no"?><!DOCTYPE svg PUBLIC "-//W3C//DTD SVG 1.1//EN" "http://www.w3.org/Graphics/SVG/1.1/DTD/svg11.dtd"><svg width="100%" height="100%" viewBox="0 0 10 10" version="1.1" xmlns="http://www.w3.org/2000/svg" xmlns:xlink="http://www.w3.org/1999/xlink" xml:space="preserve" style="fill-rule:evenodd;clip-rule:evenodd;stroke-linejoin:round;stroke-miterlimit:1.41421;"><rect id="Artboard1" x="0" y="0" width="10" height="10" style="fill:none;"/><clipPath id="_clip1"><rect x="0" y="0" width="10" height="10"/></clipPath><g clip-path="url(#_clip1)"><path d="M7.292,0.019c0.041,0.005 0.052,0.005 0.092,0.014c0.076,0.016 0.149,0.046 0.214,0.088c0.199,0.128 0.315,0.36 0.298,0.595c-0.004,0.062 -0.018,0.124 -0.039,0.182c-0.022,0.058 -0.052,0.113 -0.089,0.163c-0.025,0.033 -0.033,0.04 -0.061,0.07l-3.887,3.887l3.887,3.886l0.032,0.034c0.029,0.037 0.056,0.073 0.079,0.115c0.052,0.095 0.08,0.204 0.08,0.312c0,0.063 -0.009,0.125 -0.027,0.184c-0.057,0.196 -0.207,0.356 -0.397,0.428c-0.059,0.021 -0.12,0.035 -0.182,0.039c-0.077,0.005 -0.156,-0.003 -0.23,-0.025c-0.075,-0.022 -0.145,-0.057 -0.207,-0.103c-0.033,-0.025 -0.04,-0.033 -0.07,-0.061l-4.348,-4.348c-0.043,-0.046 -0.081,-0.093 -0.112,-0.149c-0.097,-0.179 -0.105,-0.398 -0.02,-0.583c0.019,-0.043 0.043,-0.083 0.071,-0.12c0.025,-0.033 0.033,-0.04 0.061,-0.071l4.348,-4.347c0.034,-0.032 0.068,-0.062 0.108,-0.088c0.078,-0.05 0.168,-0.083 0.26,-0.097c0.041,-0.006 0.051,-0.005 0.093,-0.006c0.015,0 0.031,0.001 0.046,0.001Z" style="fill:#228eea;fill-rule:nonzero;"/></g></svg>